<svg width="175" height="270" viewBox="0 0 175 270" fill="none" xmlns="http://www.w3.org/2000/svg">
<path d="M13.8684 2.71352C14.2625 1.68164 13.7454 0.525675 12.7135 0.131608C11.6816 -0.262459 10.5257 0.254595 10.1316 1.28648L13.8684 2.71352ZM8.49931 75.3011L6.76161 76.2912L6.76161 76.2912L8.49931 75.3011ZM76 96L74.2256 96.9227L74.2256 96.9227L76 96ZM45.5 189L43.5705 189.526L45.5 189ZM139.499 192.5L137.735 193.442L139.499 192.5ZM163.001 269.733C163.958 270.284 165.181 269.956 165.733 268.999L174.722 253.404C175.273 252.447 174.945 251.224 173.988 250.672C173.031 250.121 171.808 250.449 171.256 251.406L163.266 265.268L149.404 257.278C148.447 256.727 147.224 257.055 146.672 258.012C146.121 258.969 146.449 260.192 147.406 260.744L163.001 269.733ZM12 2C10.1316 1.28648 10.1316 1.28655 10.1315 1.28663C10.1315 1.28666 10.1315 1.28674 10.1315 1.28681C10.1314 1.28694 10.1314 1.28708 10.1313 1.28725C10.1312 1.28759 10.131 1.288 10.1308 1.28849C10.1305 1.28948 10.13 1.29077 10.1294 1.29238C10.1281 1.2956 10.1264 1.30005 10.1243 1.30575C10.12 1.31713 10.1138 1.33346 10.1058 1.35465C10.0898 1.39703 10.0667 1.45887 10.0367 1.53956C9.97686 1.70095 9.8899 1.9378 9.77937 2.24532C9.55832 2.8603 9.24294 3.75819 8.86149 4.90057L12.6556 6.16746C13.0267 5.05596 13.3321 4.18684 13.5436 3.59829C13.6494 3.30404 13.7317 3.07998 13.787 2.93091C13.8146 2.85638 13.8355 2.8006 13.8492 2.76417C13.8561 2.74595 13.8612 2.73257 13.8644 2.72411C13.866 2.71987 13.8671 2.71687 13.8678 2.7151C13.8681 2.71422 13.8683 2.71364 13.8684 2.71338C13.8685 2.71325 13.8685 2.71319 13.8685 2.71322C13.8685 2.71323 13.8685 2.71326 13.8685 2.71331C13.8685 2.71334 13.8684 2.71339 13.8684 2.7134C13.8684 2.71346 13.8684 2.71352 12 2ZM6.61583 12.185C5.98616 14.3982 5.32614 16.8795 4.68583 19.561L8.57645 20.49C9.20212 17.8698 9.84736 15.444 10.4632 13.2796L6.61583 12.185ZM3.08294 27.0188C2.61991 29.4505 2.19872 31.9781 1.84689 34.5647L5.8104 35.1038C6.15174 32.5943 6.56111 30.1367 7.01234 27.767L3.08294 27.0188ZM1.04719 42.1791C0.863248 44.7264 0.766549 47.2987 0.781849 49.8631L4.78178 49.8392C4.76717 47.3904 4.85948 44.9229 5.0368 42.4672L1.04719 42.1791ZM1.19743 57.585C1.47446 60.1937 1.89958 62.7653 2.50252 65.2614L6.39069 64.3222C5.83389 62.0171 5.43603 59.62 5.17507 57.1626L1.19743 57.585ZM4.98367 72.7368C5.51562 73.955 6.10672 75.1419 6.76161 76.2912L10.237 74.311C9.65601 73.2913 9.12781 72.2316 8.64941 71.1361L4.98367 72.7368ZM6.76161 76.2912C7.47296 77.5397 8.29859 78.6572 9.22601 79.6545L12.1553 76.9307C11.4385 76.1599 10.796 75.292 10.237 74.311L6.76161 76.2912ZM15.9516 84.3031C18.2961 85.3246 20.8554 86.0093 23.5237 86.4738L24.2096 82.533C21.7593 82.1065 19.5245 81.4966 17.5493 80.636L15.9516 84.3031ZM31.1336 87.2863C33.6001 87.4211 36.1267 87.4652 38.6503 87.4801L38.674 83.4802C36.1754 83.4654 33.7233 83.4219 31.3519 83.2922L31.1336 87.2863ZM46.0729 87.4969C48.5752 87.5125 51.0261 87.5578 53.3913 87.6906L53.6156 83.6969C51.1531 83.5586 48.626 83.5128 46.0979 83.497L46.0729 87.4969ZM60.524 88.47C62.9753 88.9095 65.1969 89.5381 67.1451 90.4241L68.8011 86.783C66.4683 85.7221 63.9073 85.0128 61.23 84.5327L60.524 88.47ZM72.4099 94.2398C73.0937 95.028 73.7024 95.9166 74.2256 96.9227L77.7744 95.0773C77.1083 93.7962 76.3233 92.6466 75.4312 91.6184L72.4099 94.2398ZM74.2256 96.9227C74.7997 98.0269 75.222 99.1837 75.5067 100.394L79.4003 99.4772C79.0429 97.9586 78.5081 96.4881 77.7744 95.0773L74.2256 96.9227ZM75.7088 108.017C75.3637 110.459 74.6808 113.046 73.7229 115.761L77.495 117.092C78.5164 114.196 79.2781 111.346 79.6694 108.577L75.7088 108.017ZM70.5527 123.314C69.4034 125.726 68.1197 128.19 66.7482 130.693L70.2562 132.615C71.6524 130.067 72.9732 127.533 74.1638 125.034L70.5527 123.314ZM62.6196 137.962C61.2163 140.369 59.7877 142.78 58.3609 145.207L61.8091 147.235C63.2263 144.824 64.6675 142.391 66.0754 139.976L62.6196 137.962ZM54.1306 152.52C52.717 155.026 51.3575 157.525 50.1026 159.997L53.6695 161.808C54.89 159.403 56.2196 156.958 57.6145 154.486L54.1306 152.52ZM46.5064 167.794C45.366 170.595 44.4296 173.362 43.786 176.063L47.677 176.99C48.2621 174.535 49.1267 171.966 50.2113 169.302L46.5064 167.794ZM42.8527 184.965C42.9346 186.519 43.1659 188.043 43.5705 189.526L47.4295 188.474C47.1065 187.289 46.9154 186.05 46.8472 184.754L42.8527 184.965ZM43.5705 189.526C43.96 190.954 44.4504 192.255 45.0425 193.43L48.6145 191.629C48.1567 190.721 47.7572 189.675 47.4295 188.474L43.5705 189.526ZM50.9107 199.646C53.3274 200.968 56.0914 201.551 59.0265 201.644L59.1534 197.646C56.6517 197.566 54.5474 197.076 52.8298 196.136L50.9107 199.646ZM66.8842 200.955C69.292 200.516 71.8008 199.894 74.3694 199.154L73.2626 195.31C70.7807 196.025 68.4069 196.611 66.1671 197.02L66.8842 200.955ZM81.6081 196.855C83.9496 196.057 86.3281 195.206 88.7131 194.345L87.3551 190.583C84.9744 191.442 82.6235 192.283 80.3173 193.069L81.6081 196.855ZM95.7605 191.808C98.128 190.968 100.481 190.155 102.803 189.405L101.574 185.599C99.2018 186.365 96.8092 187.192 94.4228 188.039L95.7605 191.808ZM109.882 187.321C112.348 186.681 114.733 186.168 117.012 185.829L116.423 181.872C113.97 182.238 111.443 182.783 108.877 183.45L109.882 187.321ZM124.096 185.395C126.549 185.51 128.752 185.955 130.689 186.779L132.254 183.098C129.789 182.049 127.099 181.532 124.284 181.399L124.096 185.395ZM135.876 190.647C136.547 191.456 137.169 192.383 137.735 193.442L141.264 191.558C140.579 190.277 139.809 189.124 138.955 188.094L135.876 190.647ZM137.735 193.442C138.25 194.407 138.805 195.561 139.393 196.885L143.049 195.263C142.435 193.88 141.838 192.633 141.264 191.558L137.735 193.442ZM142.321 204.136C143.188 206.441 144.082 208.942 144.99 211.576L148.771 210.273C147.854 207.612 146.948 205.076 146.066 202.729L142.321 204.136ZM147.498 219.074C148.305 221.55 149.111 224.082 149.908 226.627L153.725 225.433C152.925 222.875 152.114 220.328 151.302 217.835L147.498 219.074ZM152.239 234.209C153.021 236.789 153.781 239.34 154.511 241.815L158.348 240.684C157.616 238.2 156.852 235.641 156.068 233.05L152.239 234.209ZM156.729 249.433C157.522 252.187 158.253 254.759 158.902 257.066L162.753 255.982C162.101 253.668 161.368 251.089 160.573 248.327L156.729 249.433ZM161.03 264.709C161.362 265.919 161.622 266.872 161.799 267.523C161.887 267.848 161.955 268.097 162 268.265C162.023 268.349 162.04 268.413 162.051 268.455C162.057 268.477 162.061 268.493 162.064 268.503C162.066 268.509 162.067 268.513 162.068 268.515C162.068 268.517 162.068 268.518 162.068 268.518C162.068 268.518 162.068 268.519 162.068 268.519C162.068 268.519 162.069 268.519 162.069 268.519C162.069 268.519 162.069 268.519 162.069 268.519C162.069 268.519 162.069 268.519 164 268C165.931 267.481 165.931 267.481 165.931 267.481C165.931 267.481 165.931 267.481 165.931 267.481C165.931 267.481 165.931 267.481 165.931 267.481C165.931 267.48 165.931 267.48 165.931 267.48C165.931 267.479 165.931 267.478 165.93 267.477C165.93 267.474 165.928 267.47 165.927 267.464C165.924 267.453 165.92 267.437 165.914 267.415C165.902 267.372 165.885 267.307 165.862 267.222C165.816 267.053 165.748 266.801 165.659 266.474C165.481 265.82 165.22 264.863 164.887 263.649L161.03 264.709Z" fill="#1D1C1B"/>
</svg>
