<svg width="25" height="25" viewBox="0 0 25 25" fill="none" xmlns="http://www.w3.org/2000/svg">
<path fill-rule="evenodd" clip-rule="evenodd" d="M11.88 6.9978C9.71752 5.47732 6.90023 5.47732 4.7377 6.9978C4.22412 7.3589 3.53021 7.21254 3.18782 6.67088C2.84544 6.12923 2.98422 5.3974 3.4978 5.03629C6.41115 2.9879 10.2066 2.9879 13.12 5.03629C15.2825 6.55678 18.0998 6.55678 20.2623 5.03629C20.7759 4.67519 21.4698 4.82156 21.8122 5.36321C22.1546 5.90487 22.0158 6.6367 21.5022 6.9978C18.5888 9.04619 14.7934 9.04619 11.88 6.9978ZM11.8018 13.4204C9.75972 11.6975 6.85803 11.6975 4.81593 13.4204C4.33394 13.8271 3.63062 13.7447 3.24503 13.2363C2.85943 12.728 2.93758 11.9862 3.41957 11.5796C6.27803 9.16782 10.3397 9.16782 13.1982 11.5796C15.2403 13.3025 18.142 13.3025 20.1841 11.5796C20.6661 11.1729 21.3694 11.2553 21.755 11.7637C22.1406 12.272 22.0624 13.0138 21.5804 13.4204C18.722 15.8322 14.6603 15.8322 11.8018 13.4204ZM11.88 19.9637C9.71752 18.4432 6.90023 18.4432 4.7377 19.9637C4.22412 20.3248 3.53021 20.1784 3.18782 19.6368C2.84544 19.0951 2.98422 18.3633 3.4978 18.0022C6.41115 15.9538 10.2066 15.9538 13.12 18.0022C15.2825 19.5227 18.0998 19.5227 20.2623 18.0022C20.7759 17.6411 21.4698 17.7875 21.8122 18.3291C22.1546 18.8708 22.0158 19.6026 21.5022 19.9637C18.5888 22.0121 14.7934 22.0121 11.88 19.9637Z" fill="black"/>
</svg>
