<svg width="25" height="26" viewBox="0 0 25 26" fill="none" xmlns="http://www.w3.org/2000/svg">
<path d="M20.0852 20.6333C20.4722 21.0503 20.4371 21.7111 19.9956 22.07C19.19 22.7248 18.9974 22.7498 17.7781 23.1797C16.2359 23.7281 14.6094 24 12.8984 24C11.2625 24 9.77187 23.7422 8.43125 23.2219C7.09062 22.7062 5.94219 21.9844 4.99531 21.0609C4.04375 20.1375 3.30781 19.0312 2.78281 17.7422C2.25781 16.4531 2 15.0469 2 13.5234C2 12.0187 2.28594 10.6266 2.85781 9.34687C3.42969 8.06719 4.20781 6.95625 5.19687 6.01406C6.18594 5.07188 7.33906 4.33594 8.66562 3.79687C9.98281 3.26719 11.3984 3 12.8984 3C14.1922 3 15.4484 3.1875 16.6625 3.5625C17.8812 3.9375 18.9594 4.50469 19.9016 5.25469C20.8437 6.00937 21.5937 6.94688 22.1562 8.07656C22.7187 9.20625 23 10.5328 23 12.0562C23 13.1859 22.8453 14.1844 22.5312 15.0469C22.2172 15.9141 21.8 16.6359 21.275 17.2219C20.75 17.8078 20.1547 18.2437 19.4797 18.5344C18.8047 18.825 18.0969 18.9703 17.3562 18.9703C16.5969 18.9703 15.9875 18.7922 15.5281 18.4359C15.0734 18.0797 14.8437 17.625 14.8437 17.0812H14.7031C14.4172 17.5312 13.9812 17.9625 13.3906 18.3656C12.8 18.7687 12.0781 18.975 11.2203 18.975C9.92656 18.975 8.92812 18.5531 8.225 17.7047C7.52187 16.8562 7.17031 15.7594 7.17031 14.4C7.17031 13.6078 7.30156 12.8297 7.56875 12.0562C7.83594 11.2828 8.21562 10.5984 8.70781 9.99375C9.2 9.39375 9.79062 8.90625 10.475 8.54062C11.1594 8.175 11.9187 7.99219 12.7578 7.99219C13.4797 7.99219 14.0891 8.14219 14.5859 8.44219C15.0781 8.74219 15.4016 9.1125 15.5563 9.54375H15.5844L15.6513 9.21482C15.746 8.74887 16.1557 8.41406 16.6312 8.41406H17.1231C17.758 8.41406 18.2321 8.99805 18.1018 9.61942L17.2344 13.7531C17.1969 14.0156 17.1453 14.3063 17.0797 14.6297C17.0141 14.9484 16.9812 15.2484 16.9812 15.5344C16.9812 15.8531 17.0422 16.1203 17.1688 16.3406C17.2906 16.5562 17.5344 16.6641 17.8953 16.6641C18.6359 16.6641 19.25 16.2703 19.7375 15.4781C20.2203 14.6859 20.4641 13.6266 20.4641 12.2906C20.4641 11.1609 20.2719 10.1578 19.8922 9.28594C19.5125 8.40938 18.9828 7.67812 18.3078 7.08281C17.6328 6.49219 16.8266 6.04219 15.8984 5.74219C14.9656 5.44219 13.9484 5.29219 12.8469 5.29219C11.6469 5.29219 10.55 5.50312 9.55156 5.925C8.55313 6.34687 7.7 6.93281 6.99687 7.67344C6.29375 8.41875 5.74531 9.29062 5.35625 10.2984C4.9625 11.3016 4.76562 12.3891 4.76562 13.5563C4.76562 14.7984 4.97187 15.9187 5.37969 16.9172C5.7875 17.9156 6.36406 18.7641 7.10469 19.4719C7.84531 20.1797 8.73125 20.7187 9.75781 21.0937C10.7844 21.4687 11.9187 21.6562 13.1516 21.6562C14.6937 21.6562 16.0203 21.4125 17.1312 20.9203C17.9526 20.5599 18.0125 20.5792 18.4971 20.2343C18.9131 19.9383 19.4833 19.9848 19.8306 20.3591L20.0852 20.6333ZM12.8422 10.3125C12.3875 10.3125 11.9844 10.4437 11.6422 10.7062C11.3 10.9687 11.0094 11.3016 10.7703 11.7094C10.5312 12.1125 10.3531 12.5625 10.2266 13.05C10.1047 13.5375 10.0391 14.0109 10.0391 14.4609C10.0391 14.6859 10.0625 14.925 10.1094 15.1828C10.1562 15.4359 10.25 15.6703 10.3953 15.8906C10.5359 16.1062 10.7234 16.2844 10.9531 16.425C11.1828 16.5656 11.4875 16.6359 11.8672 16.6359C12.3828 16.6359 12.8187 16.5094 13.1797 16.2562C13.5406 16.0031 13.8359 15.6844 14.0656 15.2953C14.2953 14.9109 14.4594 14.4891 14.5672 14.0391C14.6703 13.5891 14.7219 13.1719 14.7219 12.7969C14.7219 12.4969 14.6938 12.2016 14.6375 11.9062C14.5813 11.6156 14.4828 11.3531 14.3375 11.1141C14.1969 10.8797 14 10.6875 13.7516 10.5375C13.5078 10.3875 13.2031 10.3125 12.8422 10.3125Z" fill="black"/>
</svg>
