<svg width="26" height="25" viewBox="0 0 26 25" fill="none" xmlns="http://www.w3.org/2000/svg">
<path fill-rule="evenodd" clip-rule="evenodd" d="M13.5364 2.58828V10.5366L19.9395 6.76376L13.5364 2.58828ZM11.3012 10.6006V1.9634C11.3012 1.24444 11.8359 0.730141 12.4223 0.509158C13.006 0.289149 13.7591 0.305953 14.3705 0.704654L21.7549 5.52009C22.7691 6.18143 22.7201 7.4712 21.681 8.08346L14.3095 12.4269L21.7142 16.9221C22.7357 17.5423 22.7699 18.818 21.7663 19.4725L14.3705 24.2953C13.7591 24.694 13.006 24.7108 12.4223 24.4908C11.8359 24.2699 11.3012 23.7555 11.3012 23.0366V14.1995L5.24526 17.7678C4.73448 18.0687 4.03946 17.9531 3.6929 17.5095C3.34633 17.066 3.47946 16.4624 3.99024 16.1614L10.3688 12.403L3.9774 8.52297C3.47151 8.21585 3.34809 7.61073 3.70174 7.1714C4.05539 6.73207 4.7522 6.62489 5.2581 6.93201L11.3012 10.6006ZM13.5364 14.3261V22.4117L19.9578 18.2243L13.5364 14.3261Z" fill="#1D1C1B"/>
</svg>
