<svg width="25" height="25" viewBox="0 0 25 25" fill="none" xmlns="http://www.w3.org/2000/svg">
<path d="M7.6087 5C7.6087 3.89543 8.50413 3 9.6087 3H15.3913C16.4959 3 17.3913 3.89543 17.3913 5V6.58824C17.3913 7.69281 16.4959 8.58824 15.3913 8.58824H9.60871C8.50414 8.58824 7.6087 7.6928 7.6087 6.58824V5Z" fill="#1D1C1B"/>
<path fill-rule="evenodd" clip-rule="evenodd" d="M2 5.23529C0.895431 5.23529 0 6.13072 0 7.23529V20C0 21.1046 0.89543 22 2 22H23C24.1046 22 25 21.1046 25 20V7.23529C25 6.13072 24.1046 5.23529 23 5.23529H2ZM12.5 18.6471C15.2014 18.6471 17.3913 16.3953 17.3913 13.6176C17.3913 10.84 15.2014 8.58823 12.5 8.58823C9.79861 8.58823 7.6087 10.84 7.6087 13.6176C7.6087 16.3953 9.79861 18.6471 12.5 18.6471Z" fill="#1D1C1B"/>
</svg>
