<svg width="33" height="25" viewBox="0 0 33 25" fill="none" xmlns="http://www.w3.org/2000/svg">
<rect x="10.0435" y="0.5" width="12.913" height="7.05882" rx="2" fill="#1D1C1B"/>
<path fill-rule="evenodd" clip-rule="evenodd" d="M2 3.32353C0.895431 3.32353 0 4.21896 0 5.32353V22.5C0 23.6046 0.895431 24.5 2 24.5H31C32.1046 24.5 33 23.6046 33 22.5V5.32353C33 4.21896 32.1046 3.32353 31 3.32353H2ZM16.5 20.2647C20.0658 20.2647 22.9565 17.4204 22.9565 13.9118C22.9565 10.4031 20.0658 7.55883 16.5 7.55883C12.9342 7.55883 10.0435 10.4031 10.0435 13.9118C10.0435 17.4204 12.9342 20.2647 16.5 20.2647Z" fill="#1D1C1B"/>
</svg>
