<svg width="26" height="25" viewBox="0 0 26 25" fill="none" xmlns="http://www.w3.org/2000/svg">
<path fill-rule="evenodd" clip-rule="evenodd" d="M11.4842 1.60495C13.91 1.26747 16.379 1.74917 18.5 2.97374C19.0637 3.29919 19.2568 4.01999 18.9314 4.58369C18.6059 5.14739 17.8851 5.34053 17.3214 5.01508C15.6549 4.05292 13.715 3.67444 11.809 3.93961C9.90307 4.20478 8.14012 5.09843 6.79954 6.47895C5.45896 7.85947 4.61744 9.6479 4.40834 11.5608C4.19923 13.4737 4.63449 15.4017 5.64515 17.0393C6.65581 18.6768 8.18405 19.9302 9.98771 20.6009C11.7914 21.2716 13.7673 21.3212 15.6023 20.7418C17.4373 20.1624 19.0265 18.9872 20.118 17.4024C21.2095 15.8176 21.7409 13.9138 21.628 11.9928C21.5898 11.3431 22.0855 10.7853 22.7353 10.7471C23.3851 10.7089 23.9428 11.2047 23.981 11.8545C24.1247 14.2994 23.4484 16.7224 22.0592 18.7394C20.67 20.7564 18.6475 22.2521 16.312 22.9896C13.9765 23.727 11.4617 23.6639 9.16617 22.8103C6.87061 21.9567 4.92557 20.3614 3.63928 18.2773C2.35299 16.1931 1.79902 13.7393 2.06515 11.3047C2.33129 8.87005 3.40232 6.59387 5.10851 4.83685C6.81469 3.07982 9.05845 1.94244 11.4842 1.60495ZM23.6044 4.54771C24.0909 4.98015 24.1347 5.72509 23.7023 6.21158L14.8273 16.1959C14.0765 17.0406 12.7694 17.079 11.9703 16.2799L8.23806 12.5477C7.7778 12.0874 7.7778 11.3412 8.23806 10.8809C8.69832 10.4207 9.44455 10.4207 9.90481 10.8809L13.3424 14.3185L21.9405 4.64559C22.373 4.15909 23.1179 4.11527 23.6044 4.54771Z" fill="#1CA58E"/>
</svg>
