<svg width="26" height="25" viewBox="0 0 26 25" fill="none" xmlns="http://www.w3.org/2000/svg">
<path fill-rule="evenodd" clip-rule="evenodd" d="M6.2825 16.3891C5.50145 17.1701 5.50145 18.4365 6.2825 19.2175C7.06355 19.9986 8.32988 19.9986 9.11093 19.2175L13 15.3284L16.8891 19.2175C17.6702 19.9986 18.9365 19.9986 19.7175 19.2175C20.4986 18.4365 20.4986 17.1701 19.7175 16.3891L15.8284 12.5L19.7175 8.61091C20.4986 7.82987 20.4986 6.56354 19.7175 5.78249C18.9365 5.00144 17.6702 5.00144 16.8891 5.78249L13 9.67157L9.11093 5.78249C8.32988 5.00144 7.06355 5.00144 6.2825 5.78249C5.50145 6.56354 5.50145 7.82987 6.2825 8.61091L10.1716 12.5L6.2825 16.3891Z" fill="currentColor"/>
</svg>
