<svg width="25" height="26" viewBox="0 0 25 26" fill="none" xmlns="http://www.w3.org/2000/svg">
<path d="M12.1096 19.1985L4.77632 7.28188" stroke="#1D1C1B" stroke-linecap="round" stroke-dasharray="2 2"/>
<line x1="12.0742" y1="18.6963" x2="19.4075" y2="6.77961" stroke="#1D1C1B" stroke-dasharray="2 2"/>
<line x1="5.16666" y1="6.54167" x2="19.8333" y2="6.54167" stroke="#1D1C1B" stroke-dasharray="2 2"/>
<path d="M8.33333 7.04167C8.33333 8.79057 6.91557 10.2083 5.16667 10.2083C3.41777 10.2083 2 8.79057 2 7.04167C2 5.29276 3.41777 3.875 5.16667 3.875C6.91557 3.875 8.33333 5.29276 8.33333 7.04167Z" fill="#1D1C1B" stroke="#1D1C1B"/>
<path d="M23 7.04167C23 8.79057 21.5822 10.2083 19.8333 10.2083C18.0844 10.2083 16.6667 8.79057 16.6667 7.04167C16.6667 5.29276 18.0844 3.875 19.8333 3.875C21.5822 3.875 23 5.29276 23 7.04167Z" fill="#1D1C1B" stroke="#1D1C1B"/>
<path d="M15.6667 18.9583C15.6667 20.7072 14.2489 22.125 12.5 22.125C10.7511 22.125 9.33334 20.7072 9.33334 18.9583C9.33334 17.2094 10.7511 15.7917 12.5 15.7917C14.2489 15.7917 15.6667 17.2094 15.6667 18.9583Z" fill="#1D1C1B" stroke="#1D1C1B"/>
</svg>
