<svg width="25" height="25" viewBox="0 0 25 25" fill="none" xmlns="http://www.w3.org/2000/svg">
<path fill-rule="evenodd" clip-rule="evenodd" d="M3.44441 8.7968C3.53338 7.76249 4.39892 6.96821 5.43705 6.96821H8.42397C8.82477 6.96821 9.18971 7.08289 9.49498 7.27716C9.71408 7.4166 9.95743 7.52767 10.2171 7.52767H14.783C15.0427 7.52767 15.286 7.4166 15.5051 7.27716C15.8104 7.08289 16.1754 6.96821 16.5762 6.96821H19.5631C20.6012 6.96821 21.4668 7.76249 21.5557 8.7968L22.2494 16.8604C22.3498 18.0283 21.4289 19.0318 20.2567 19.0318H19.7869C18.968 19.0318 18.2318 18.5325 17.9288 17.7717L17.227 16.0092C17.0755 15.6287 16.7074 15.3791 16.298 15.3791H8.70217C8.29269 15.3791 7.92459 15.6287 7.77311 16.0092L7.07132 17.7717C6.76837 18.5325 6.03216 19.0318 5.21321 19.0318H4.74342C3.57122 19.0318 2.65032 18.0283 2.75078 16.8604L3.44441 8.7968ZM18.0316 12.6041C18.0316 13.0639 17.6749 13.4366 17.2348 13.4366C16.7947 13.4366 16.438 13.0639 16.438 12.6041C16.438 12.1443 16.7947 11.7716 17.2348 11.7716C17.6749 11.7716 18.0316 12.1443 18.0316 12.6041ZM19.3384 11.3721C19.7784 11.3721 20.1351 10.9994 20.1351 10.5396C20.1351 10.0798 19.7784 9.70708 19.3384 9.70708C18.8983 9.70708 18.5416 10.0798 18.5416 10.5396C18.5416 10.9994 18.8983 11.3721 19.3384 11.3721ZM6.69562 9.68752C6.97322 9.68752 7.19827 9.91257 7.19827 10.1902V11.269H8.2093C8.4869 11.269 8.71195 11.494 8.71195 11.7716C8.71195 12.0492 8.4869 12.2743 8.2093 12.2743H7.19827V13.3532C7.19827 13.6308 6.97322 13.8558 6.69562 13.8558C6.41801 13.8558 6.19297 13.6308 6.19297 13.3532V12.2743H5.18198C4.90438 12.2743 4.67933 12.0492 4.67933 11.7716C4.67933 11.494 4.90438 11.269 5.18198 11.269H6.19297V10.1902C6.19297 9.91257 6.41801 9.68752 6.69562 9.68752Z" fill="#1D1C1B"/>
</svg>
