<svg width="46" height="207" viewBox="0 0 46 207" fill="none" xmlns="http://www.w3.org/2000/svg">
<path fill-rule="evenodd" clip-rule="evenodd" d="M15.5829 0.0691162C16.9255 0.391337 17.7527 1.74093 17.4304 3.08352C17.0568 4.64025 16.7437 6.21447 16.4897 7.80448L11.5523 7.01557C11.8262 5.30125 12.1643 3.60089 12.5685 1.91665C12.8907 0.574065 14.2403 -0.253105 15.5829 0.0691162ZM11.1611 27.6506C10.7805 24.1881 10.6098 20.7464 10.6639 17.3404L15.6633 17.4199C15.6126 20.6054 15.7721 23.8379 16.1312 27.1042L11.1611 27.6506ZM14.0884 42.7729C13.6333 41.1124 13.2208 39.4522 12.8526 37.7937L17.7337 36.71C18.0838 38.2865 18.4764 39.8674 18.9105 41.4512C19.2978 42.864 19.782 44.3239 20.3543 45.8234L15.683 47.6064C15.0608 45.9763 14.5239 44.3617 14.0884 42.7729ZM24.8965 65.2228C23.0866 62.388 21.3931 59.5302 19.8805 56.694L24.2924 54.3412C25.7332 57.0431 27.3584 59.7874 29.1108 62.5321L24.8965 65.2228ZM33.3348 77.3104C32.3562 76.01 31.3848 74.6912 30.4274 73.3589L34.4879 70.4413C35.4223 71.7418 36.3719 73.0309 37.3299 74.3039C38.4055 75.7331 39.3783 77.2171 40.2483 78.7442L35.9038 81.2192C35.1378 79.8746 34.2814 78.5683 33.3348 77.3104ZM40.7664 99.098C40.727 96.0057 40.2941 92.892 39.4669 89.8513L44.2916 88.5389C45.2294 91.9862 45.7213 95.5194 45.766 99.0343L40.7664 99.098ZM36.139 116.889C37.7206 114.231 38.8999 111.349 39.6727 108.341L44.5155 109.585C43.6292 113.035 42.2712 116.361 40.4362 119.446L36.139 116.889ZM26.6436 126.829C27.9566 125.964 29.1761 125.019 30.303 124.005L33.6462 127.723C32.3342 128.903 30.9172 130 29.3959 131.004C28.2833 131.737 27.2246 132.525 26.221 133.361L23.0198 129.52C24.1661 128.565 25.3746 127.666 26.6436 126.829ZM12.1549 143.751C13.4051 141.028 14.9541 138.436 16.7882 136.03L20.7644 139.062C19.1573 141.169 17.7977 143.444 16.6988 145.837L12.1549 143.751ZM8.34585 161.216C8.34833 158.196 8.67403 155.2 9.30899 152.282L14.1947 153.344C13.6353 155.916 13.348 158.557 13.3458 161.22L8.34585 161.216ZM10.4657 174.491C9.99447 173.055 9.60334 171.606 9.29078 170.15L14.1794 169.1C14.4552 170.385 14.8004 171.664 15.2166 172.933C15.6297 174.192 16.0457 175.471 16.4624 176.765L11.7031 178.298C11.2894 177.013 10.8762 175.743 10.4657 174.491ZM24.1491 205.776C23.4442 206.964 21.9103 207.355 20.7231 206.65L1.37639 195.163C0.189174 194.458 -0.201811 192.924 0.503096 191.737C1.208 190.549 2.74187 190.158 3.92908 190.863L20.5499 200.732L21.4776 200.482L31.337 183.877C32.0419 182.69 33.5757 182.299 34.7629 183.004C35.9501 183.709 36.3411 185.242 35.6362 186.43L24.1491 205.776ZM16.4087 193.583C15.6671 191.039 14.8957 188.475 14.11 185.928L18.888 184.454C19.6803 187.023 20.4592 189.612 21.2089 192.184L16.4087 193.583Z" fill="#1D1C1B"/>
</svg>
