<svg width="25" height="26" viewBox="0 0 25 26" fill="none" xmlns="http://www.w3.org/2000/svg">
<path d="M14.3304 6.3955L19.1003 11.1665C19.3012 11.3675 19.3012 11.6955 19.1003 11.8965L8.04717 22.9522C7.72598 23.2735 7.30498 23.4759 6.85347 23.526L2.64359 23.9934C1.98786 24.0674 1.43261 23.512 1.50664 22.8561L1.97394 18.6449C2.02403 18.1935 2.22626 17.7726 2.54736 17.4514L13.6006 6.3955C13.8016 6.1945 14.1294 6.1945 14.3304 6.3955ZM22.8972 5.18422L20.3165 2.60299C19.5127 1.799 18.2066 1.799 17.3975 2.60299L15.5255 4.47544C15.3245 4.67644 15.3245 5.00438 15.5255 5.20538L20.2954 9.97643C20.4963 10.1774 20.8242 10.1774 21.0252 9.97643L22.8972 8.10398C23.701 7.2947 23.701 5.98821 22.8972 5.18422Z" fill="#1D1C1B"/>
</svg>
