<svg width="25" height="25" viewBox="0 0 25 25" fill="none" xmlns="http://www.w3.org/2000/svg">
<path fill-rule="evenodd" clip-rule="evenodd" d="M22.481 15.8445C21.9297 15.8445 21.4829 15.4142 21.4829 14.8834L21.4829 9.11661C21.4829 8.58579 21.9297 8.15547 22.481 8.15547C23.0322 8.15547 23.4791 8.58579 23.4791 9.11661L23.4791 14.8834C23.4791 15.4142 23.0322 15.8445 22.481 15.8445Z" fill="#1D1C1B"/>
<path fill-rule="evenodd" clip-rule="evenodd" d="M18.4886 18.7279C17.9374 18.7279 17.4905 18.2976 17.4905 17.7668L17.4905 6.23321C17.4905 5.70239 17.9374 5.27207 18.4886 5.27207C19.0398 5.27207 19.4867 5.70239 19.4867 6.23321L19.4867 17.7668C19.4867 18.2976 19.0398 18.7279 18.4886 18.7279Z" fill="#1D1C1B"/>
<path fill-rule="evenodd" clip-rule="evenodd" d="M14.4962 16.8057C13.945 16.8057 13.4981 16.3753 13.4981 15.8445L13.4981 8.15547C13.4981 7.62465 13.945 7.19434 14.4962 7.19434C15.0475 7.19434 15.4943 7.62465 15.4943 8.15547L15.4943 15.8445C15.4943 16.3753 15.0475 16.8057 14.4962 16.8057Z" fill="#1D1C1B"/>
<path fill-rule="evenodd" clip-rule="evenodd" d="M10.5038 20.6502C9.95256 20.6502 9.5057 20.2199 9.5057 19.6891L9.50569 4.31094C9.50569 3.78012 9.95256 3.34981 10.5038 3.34981C11.055 3.34981 11.5019 3.78012 11.5019 4.31094L11.5019 19.6891C11.5019 20.2199 11.055 20.6502 10.5038 20.6502Z" fill="#1D1C1B"/>
<path fill-rule="evenodd" clip-rule="evenodd" d="M6.51142 14.4028C5.96019 14.4028 5.51333 14.0442 5.51333 13.6019L5.51333 10.3981C5.51333 9.95577 5.96019 9.59717 6.51142 9.59717C7.06266 9.59717 7.50952 9.95577 7.50952 10.3981L7.50952 13.6019C7.50952 14.0442 7.06266 14.4028 6.51142 14.4028Z" fill="#1D1C1B"/>
<path fill-rule="evenodd" clip-rule="evenodd" d="M2.51899 16.8057C1.96776 16.8057 1.52089 16.3753 1.52089 15.8445L1.52089 8.15547C1.52089 7.62465 1.96776 7.19434 2.51899 7.19434C3.07022 7.19434 3.51709 7.62465 3.51709 8.15547L3.51709 15.8445C3.51709 16.3753 3.07023 16.8057 2.51899 16.8057Z" fill="#1D1C1B"/>
</svg>
