<svg width="25" height="26" viewBox="0 0 25 26" fill="none" xmlns="http://www.w3.org/2000/svg">
<path fill-rule="evenodd" clip-rule="evenodd" d="M24.1836 14.0549C21.8113 17.7071 18.7157 21.408 12.489 21.408C6.21522 21.408 3.5375 18.0683 0.842498 14.0737C0.402879 13.4221 0.388313 12.5693 0.817047 11.9104C3.18639 8.26946 6.2821 4.59201 12.489 4.59201C18.7157 4.59201 21.8113 8.29286 24.1836 11.9451C24.6001 12.5865 24.6001 13.4135 24.1836 14.0549ZM17.9295 13C17.9295 16.0047 15.4937 18.4405 12.489 18.4405C9.48434 18.4405 7.04856 16.0047 7.04856 13C7.04856 9.99531 9.48434 7.55954 12.489 7.55954C15.4937 7.55954 17.9295 9.99531 17.9295 13ZM12.489 16.4621C14.4011 16.4621 15.9511 14.9121 15.9511 13C15.9511 11.0879 14.4011 9.53788 12.489 9.53788C10.577 9.53788 9.02691 11.0879 9.02691 13C9.02691 14.9121 10.577 16.4621 12.489 16.4621Z" fill="#1D1C1B"/>
</svg>
