<svg width="25" height="26" viewBox="0 0 25 26" fill="none" xmlns="http://www.w3.org/2000/svg">
<path fill-rule="evenodd" clip-rule="evenodd" d="M24.1483 13.4969C24.565 12.8555 24.565 12.0285 24.1483 11.3871C21.7831 7.74626 18.6963 4.05797 12.489 4.05797C8.54153 4.05797 5.85603 5.54965 3.81555 7.57219L7.44614 10.4384C8.24318 8.43401 10.2007 7.01705 12.4891 7.01705C15.4852 7.01705 17.9141 9.44589 17.9141 12.442C17.9141 14.2775 17.0026 15.9 15.6076 16.8817L18.6343 19.2712C21.0689 17.8586 22.7371 15.6693 24.1483 13.4969ZM16.5809 20.1982C15.3856 20.5976 14.034 20.8261 12.489 20.8261C6.23469 20.8261 3.56436 17.4976 0.877729 13.5157C0.438085 12.8641 0.423522 12.0112 0.852307 11.3524C1.35485 10.5803 1.89018 9.8066 2.48118 9.06689L7.06969 12.6894C7.199 15.5707 9.5759 17.867 12.4891 17.867C12.8371 17.867 13.1774 17.8342 13.5072 17.7716L16.5809 20.1982ZM13.9482 15.5717C15.1256 15.0218 15.9413 13.8272 15.9413 12.442C15.9413 10.5354 14.3957 8.98977 12.4891 8.98977C10.8198 8.98977 9.42718 10.1746 9.10638 11.7492L13.9482 15.5717Z" fill="#1D1C1B"/>
<path fill-rule="evenodd" clip-rule="evenodd" d="M1.23676 4.10799C1.61932 3.62342 2.31427 3.5344 2.78899 3.90918L23.5963 20.336C24.0711 20.7108 24.1458 21.4075 23.7632 21.892C23.3806 22.3766 22.6857 22.4656 22.211 22.0908L1.40362 5.66398C0.928908 5.2892 0.854202 4.59256 1.23676 4.10799Z" fill="#1D1C1B"/>
</svg>
