<svg width="25" height="26" viewBox="0 0 25 26" fill="none" xmlns="http://www.w3.org/2000/svg">
<path d="M14.4943 13C14.4943 14.1014 13.6014 14.9943 12.5 14.9943C11.3986 14.9943 10.5057 14.1014 10.5057 13C10.5057 11.8986 11.3986 11.0057 12.5 11.0057C13.6014 11.0057 14.4943 11.8986 14.4943 13Z" fill="#1D1C1B"/>
<path d="M10.8011 10.6538C11.2783 10.3076 11.8653 10.1035 12.5 10.1035C13.2692 10.1035 13.9684 10.4033 14.4871 10.8925C14.7406 10.7487 14.9736 10.5612 15.1797 10.3499C16.199 9.30429 17.6229 8.65503 19.1985 8.65503C20.0902 8.65503 21.0478 8.28513 21.156 7.40002C21.1783 7.21821 21.1897 7.03289 21.1897 6.84478C21.1897 4.94092 20.0162 3.32306 18.3828 2.73584C17.8362 2.58212 17.2596 2.49989 16.6639 2.49989C13.1645 2.49988 10.3277 5.33672 10.3277 8.83615C10.3277 9.19472 10.3574 9.54633 10.4147 9.88865C10.4652 10.1906 10.6041 10.4489 10.8011 10.6538Z" fill="#1D1C1B"/>
<path d="M10.3925 11.0129C10.2487 10.7595 10.0612 10.5264 9.84987 10.3204C8.80432 9.30105 8.15507 7.87713 8.15507 6.30158C8.15507 5.40986 7.78516 4.45215 6.90003 4.34395C6.71823 4.32173 6.53292 4.31027 6.34481 4.31027C4.44118 4.31027 2.82349 5.48351 2.2361 7.11663C2.08228 7.66343 2 8.2402 2 8.83618C2 12.3356 4.83682 15.1725 8.33622 15.1725C8.69476 15.1725 9.04633 15.1427 9.38862 15.0855C9.6906 15.035 9.94886 14.896 10.1538 14.699C9.80759 14.2218 9.60346 13.6347 9.60346 13.0001C9.60346 12.2308 9.90331 11.5316 10.3925 11.0129Z" fill="#1D1C1B"/>
<path d="M10.5129 15.1076C10.2595 15.2514 10.0264 15.4388 9.82039 15.6502C8.80108 16.6957 7.37717 17.345 5.80163 17.345C4.9099 17.345 3.95219 17.7149 3.84399 18.6001C3.82177 18.7819 3.81031 18.9672 3.81031 19.1553C3.81031 21.059 4.98358 22.6767 6.61673 23.264C7.16351 23.4179 7.74025 23.5001 8.3362 23.5001C11.8356 23.5001 14.6724 20.6633 14.6724 17.1639C14.6724 16.8053 14.6426 16.4537 14.5854 16.1114C14.5349 15.8094 14.396 15.5512 14.199 15.3463C13.7217 15.6925 13.1347 15.8966 12.5 15.8966C11.7308 15.8966 11.0316 15.5968 10.5129 15.1076Z" fill="#1D1C1B"/>
<path d="M12.4906 14.8104H12.5094C12.5063 14.8104 12.5031 14.8104 12.5 14.8104C12.4969 14.8104 12.4938 14.8104 12.4906 14.8104Z" fill="#1D1C1B"/>
<path d="M14.6076 14.9871C14.7515 15.2405 14.9388 15.4734 15.1502 15.6795C16.1957 16.6988 16.845 18.1227 16.845 19.6983C16.845 20.5901 17.2149 21.548 18.1002 21.6561C18.2819 21.6783 18.4672 21.6898 18.6552 21.6898C20.5587 21.6898 22.1763 20.5167 22.7638 18.8838C22.9177 18.3369 23.0001 17.7599 23.0001 17.1637C23.0001 13.6642 20.1632 10.8274 16.6638 10.8274C16.3053 10.8274 15.9537 10.8572 15.6114 10.9144C15.3094 10.9649 15.0511 11.1039 14.8462 11.3009C15.1924 11.7782 15.3966 12.3653 15.3966 13.0001C15.3966 13.7692 15.0968 14.4684 14.6076 14.9871Z" fill="#1D1C1B"/>
</svg>
