<svg width="42" height="42" viewBox="0 0 42 42" fill="none" xmlns="http://www.w3.org/2000/svg">
<path fill-rule="evenodd" clip-rule="evenodd" d="M21 -9.41473e-08C22.1895 -4.21512e-08 23.1538 0.96431 23.1538 2.15385L23.1538 39.8462C23.1538 41.0357 22.1895 42 21 42C19.8104 42 18.8461 41.0357 18.8461 39.8462L18.8461 2.15385C18.8461 0.96431 19.8104 -1.46143e-07 21 -9.41473e-08Z" fill="#1CA58E"/>
<path fill-rule="evenodd" clip-rule="evenodd" d="M0 21C0 19.8105 0.96431 18.8462 2.15385 18.8462L39.8462 18.8462C41.0357 18.8462 42 19.8105 42 21C42 22.1895 41.0357 23.1539 39.8462 23.1539L2.15385 23.1539C0.96431 23.1539 0 22.1895 0 21Z" fill="#1CA58E"/>
<path fill-rule="evenodd" clip-rule="evenodd" d="M35.8491 6.15077C36.6902 6.9919 36.6902 8.35564 35.8491 9.19677L9.19658 35.8493C8.35545 36.6904 6.99171 36.6904 6.15058 35.8493C5.30945 35.0081 5.30945 33.6444 6.15058 32.8033L32.8031 6.15077C33.6442 5.30964 35.0079 5.30964 35.8491 6.15077Z" fill="#1CA58E"/>
<path fill-rule="evenodd" clip-rule="evenodd" d="M6.15083 6.15078C6.99196 5.30965 8.3557 5.30965 9.19683 6.15078L35.8493 32.8033C36.6904 33.6444 36.6904 35.0081 35.8493 35.8493C35.0082 36.6904 33.6444 36.6904 32.8033 35.8493L6.15083 9.19677C5.3097 8.35565 5.3097 6.99191 6.15083 6.15078Z" fill="#1CA58E"/>
</svg>
