<svg width="25" height="26" viewBox="0 0 25 26" fill="none" xmlns="http://www.w3.org/2000/svg">
<path d="M1.5 12.5841C1.5 12.0094 1.74727 11.4624 2.17874 11.0827L11.1787 3.1627C11.9342 2.49794 13.0658 2.49794 13.8213 3.16271L22.8213 11.0827C23.2527 11.4624 23.5 12.0094 23.5 12.5841V22C23.5 23.1046 22.6046 24 21.5 24H18.24C17.1354 24 16.24 23.1046 16.24 22V18.96C16.24 17.8554 15.3446 16.96 14.24 16.96H11.059C9.96661 16.96 9.0763 17.8365 9.05924 18.9288L9.01076 22.0312C8.9937 23.1235 8.10339 24 7.01101 24H3.5C2.39543 24 1.5 23.1046 1.5 22V12.5841Z" fill="#1D1C1B"/>
</svg>
