<svg width="25" height="26" viewBox="0 0 25 26" fill="none" xmlns="http://www.w3.org/2000/svg">
<path fill-rule="evenodd" clip-rule="evenodd" d="M17.8068 13.6247C16.9078 14.7375 16.0904 16.0109 16.0904 17.4415C16.0904 18.0125 15.6275 18.4754 15.0565 18.4754H9.94352C9.3725 18.4754 8.9096 18.0125 8.9096 17.4415C8.9096 16.0109 8.09221 14.7375 7.1932 13.6247C6.24773 12.4543 5.68155 10.9648 5.68155 9.34304C5.68155 5.57731 8.73428 2.52458 12.5 2.52458C16.2657 2.52458 19.3185 5.57731 19.3185 9.34304C19.3185 10.9648 18.7523 12.4543 17.8068 13.6247ZM11.4334 4.16286C11.7025 4.13314 11.9227 4.35545 11.9227 4.62625C11.9227 4.89705 11.7021 5.11303 11.434 5.15107C11.1452 5.19205 10.8621 5.26927 10.5914 5.38139C10.1693 5.55622 9.7858 5.81248 9.46275 6.13553C9.1397 6.45858 8.88345 6.84209 8.70861 7.26417C8.59649 7.53486 8.51927 7.818 8.47829 8.1068C8.44025 8.37491 8.22427 8.5955 7.95347 8.5955C7.68268 8.5955 7.46036 8.37532 7.49008 8.10616C7.53619 7.6885 7.64119 7.27862 7.80262 6.8889C8.02673 6.34784 8.35522 5.85622 8.76933 5.44211C9.18344 5.028 9.67506 4.69951 10.2161 4.47539C10.6058 4.31396 11.0157 4.20896 11.4334 4.16286Z" fill="#1D1C1B"/>
<path d="M9.00001 21.4754C9.00001 20.9231 9.44772 20.4754 10 20.4754H15C15.5523 20.4754 16 20.9231 16 21.4754C16 22.58 15.1046 23.4754 14 23.4754H11C9.89544 23.4754 9.00001 22.58 9.00001 21.4754Z" fill="#1D1C1B"/>
</svg>
