<svg width="25" height="25" viewBox="0 0 25 25" fill="none" xmlns="http://www.w3.org/2000/svg">
<path fill-rule="evenodd" clip-rule="evenodd" d="M5.92572 5.2743C4.82115 5.2743 3.92572 6.16973 3.92572 7.2743V14.6563C3.92572 15.7608 4.82115 16.6563 5.92572 16.6563H19.0743C20.1789 16.6563 21.0743 15.7608 21.0743 14.6563V7.2743C21.0743 6.16973 20.1789 5.2743 19.0743 5.2743H5.92572ZM7.00435 7.34375C6.45206 7.34375 6.00435 7.79146 6.00435 8.34375V13.5868C6.00435 14.1391 6.45206 14.5868 7.00435 14.5868H17.9957C18.548 14.5868 18.9957 14.1391 18.9957 13.5868V8.34375C18.9957 7.79146 18.548 7.34375 17.9957 7.34375H7.00435Z" fill="#1D1C1B"/>
<path d="M2.15277 18.0012C2.15277 17.8107 2.30719 17.6562 2.49768 17.6562H22.5023C22.6928 17.6562 22.8472 17.8107 22.8472 18.0012C22.8472 18.9536 22.0751 19.7257 21.1227 19.7257H3.87731C2.92487 19.7257 2.15277 18.9536 2.15277 18.0012Z" fill="#1D1C1B"/>
</svg>
