<svg width="25" height="26" viewBox="0 0 25 26" fill="none" xmlns="http://www.w3.org/2000/svg">
<path d="M9.5 7C9.5 5.57984 10.8431 4.42857 12.5 4.42857C14.1569 4.42857 15.5 5.57984 15.5 7V8.14286C15.5 8.69514 15.9477 9.14286 16.5 9.14286H18.5C19.0523 9.14286 19.5 8.69514 19.5 8.14286V7C19.5 3.68629 16.366 1 12.5 1C8.63401 1 5.5 3.68629 5.5 7V11.2857H4.5C2.84315 11.2857 1.5 12.437 1.5 13.8571V22.4286C1.5 23.8487 2.84315 25 4.5 25H20.5C22.1569 25 23.5 23.8487 23.5 22.4286V13.8571C23.5 12.437 22.1569 11.2857 20.5 11.2857H9.5V7Z" fill="#1D1C1B"/>
</svg>
