<svg width="25" height="26" viewBox="0 0 25 26" fill="none" xmlns="http://www.w3.org/2000/svg">
<path fill-rule="evenodd" clip-rule="evenodd" d="M15.1815 17.5957C13.839 18.4833 12.2298 19 10.5 19C5.80558 19 2 15.1944 2 10.5C2 5.80558 5.80558 2 10.5 2C15.1944 2 19 5.80558 19 10.5C19 12.3807 18.3892 14.1188 17.3551 15.5267L22.4142 20.5858C23 21.1716 23 22.1213 22.4142 22.7071C21.8284 23.2929 20.8787 23.2929 20.2929 22.7071L15.1815 17.5957ZM16 10.5C16 13.5376 13.5376 16 10.5 16C7.46243 16 5 13.5376 5 10.5C5 7.46243 7.46243 5 10.5 5C13.5376 5 16 7.46243 16 10.5Z" fill="#1D1C1B"/>
</svg>
