<svg width="25" height="26" viewBox="0 0 25 26" fill="none" xmlns="http://www.w3.org/2000/svg">
<path fill-rule="evenodd" clip-rule="evenodd" d="M12.5 19.3333C13.9753 19.3333 15.4194 18.8328 16.6079 17.894C17.798 16.954 18.667 15.6244 19.0632 14.1026C19.4594 12.5802 19.3559 10.9654 18.7716 9.51314C18.1876 8.06171 17.1614 6.86577 15.8687 6.09751C15.4673 5.85893 15.3391 5.34647 15.5825 4.9529C15.8259 4.55933 16.3486 4.4337 16.75 4.67229C18.3704 5.63536 19.6369 7.12195 20.353 8.90153C21.069 10.6811 21.1947 12.6541 20.7104 14.5147C20.2261 16.3752 19.1589 18.0193 17.6745 19.1918C16.19 20.3644 14.3711 21 12.5 21C10.6289 21 8.81002 20.3644 7.32553 19.1918C5.84107 18.0193 4.77393 16.3752 4.28963 14.5147C3.80535 12.6541 3.93097 10.6811 4.64703 8.90153C5.36309 7.12195 6.62957 5.63536 8.25 4.67229C8.65144 4.4337 9.17415 4.55933 9.41751 4.9529C9.66087 5.34647 9.53272 5.85893 9.13128 6.09751C7.83864 6.86577 6.81245 8.06171 6.22842 9.51314C5.64406 10.9654 5.54058 12.5802 5.93684 14.1026C6.33296 15.6244 7.202 16.954 8.3921 17.894C9.58057 18.8328 11.0247 19.3333 12.5 19.3333Z" fill="black"/>
<path fill-rule="evenodd" clip-rule="evenodd" d="M12.5 8.50001C12.0306 8.50001 11.65 8.12691 11.65 7.66668L11.65 1.83335C11.65 1.37311 12.0306 1.00001 12.5 1.00001C12.9694 1.00001 13.35 1.37311 13.35 1.83335L13.35 7.66668C13.35 8.12691 12.9694 8.50001 12.5 8.50001Z" fill="black"/>
</svg>
