<svg width="25" height="25" viewBox="0 0 25 25" fill="none" xmlns="http://www.w3.org/2000/svg">
<path fill-rule="evenodd" clip-rule="evenodd" d="M13 3C13.6213 3 14.125 3.51284 14.125 4.14545L14.125 8.25454C14.125 8.88716 13.6213 9.4 13 9.4C12.3787 9.4 11.875 8.88716 11.875 8.25454L11.875 4.14545C11.875 3.51284 12.3787 3 13 3ZM15.9632 5.31969C16.2739 4.77182 16.9619 4.58411 17.5 4.90042C19.2158 5.90904 20.5567 7.46591 21.3149 9.32959C22.0731 11.1933 22.2061 13.2596 21.6933 15.2081C21.1806 17.1566 20.0506 18.8784 18.4789 20.1064C16.9071 21.3344 14.9812 22 13 22C11.0188 22 9.09295 21.3344 7.52115 20.1064C5.94935 18.8784 4.81945 17.1566 4.30667 15.2081C3.7939 13.2596 3.92691 11.1933 4.68509 9.32959C5.44326 7.46591 6.78422 5.90904 8.5 4.90042C9.03808 4.58411 9.72612 4.77182 10.0368 5.31969C10.3474 5.86755 10.1631 6.5681 9.625 6.88441C8.33817 7.64087 7.33245 8.80853 6.76382 10.2063C6.19518 11.604 6.09542 13.1538 6.48 14.6152C6.86458 16.0765 7.71201 17.3679 8.89086 18.2889C10.0697 19.2099 11.5141 19.7091 13 19.7091C14.4859 19.7091 15.9303 19.2099 17.1091 18.2889C18.288 17.3679 19.1354 16.0765 19.52 14.6152C19.9046 13.1538 19.8048 11.604 19.2362 10.2063C18.6676 8.80853 17.6618 7.64087 16.375 6.88441C15.8369 6.5681 15.6526 5.86755 15.9632 5.31969Z" fill="black"/>
</svg>
