<svg width="25" height="26" viewBox="0 0 25 26" fill="none" xmlns="http://www.w3.org/2000/svg">
<path d="M7.90911 13C7.90911 14.4309 6.74912 15.5909 5.3182 15.5909C3.88728 15.5909 2.72729 14.4309 2.72729 13C2.72729 11.5691 3.88728 10.4091 5.3182 10.4091C6.74912 10.4091 7.90911 11.5691 7.90911 13Z" fill="#1D1C1B"/>
<path d="M15.0909 13C15.0909 14.4309 13.9309 15.5909 12.5 15.5909C11.0691 15.5909 9.90911 14.4309 9.90911 13C9.90911 11.5691 11.0691 10.4091 12.5 10.4091C13.9309 10.4091 15.0909 11.5691 15.0909 13Z" fill="#1D1C1B"/>
<path d="M22.2727 13C22.2727 14.4309 21.1128 15.5909 19.6818 15.5909C18.2509 15.5909 17.0909 14.4309 17.0909 13C17.0909 11.5691 18.2509 10.4091 19.6818 10.4091C21.1128 10.4091 22.2727 11.5691 22.2727 13Z" fill="#1D1C1B"/>
</svg>
