<svg width="25" height="26" viewBox="0 0 25 26" fill="none" xmlns="http://www.w3.org/2000/svg">
<path d="M3 5.5C3 4.39543 3.89543 3.5 5 3.5H9C10.1046 3.5 11 4.39543 11 5.5V21.5C11 22.6046 10.1046 23.5 9 23.5H5C3.89543 23.5 3 22.6046 3 21.5V5.5Z" fill="#1D1C1B"/>
<path d="M14.2239 5.5C14.2239 4.39543 15.1193 3.5 16.2239 3.5H20.2239C21.3284 3.5 22.2239 4.39543 22.2239 5.5V21.5C22.2239 22.6046 21.3284 23.5 20.2239 23.5H16.2239C15.1193 23.5 14.2239 22.6046 14.2239 21.5V5.5Z" fill="#1D1C1B"/>
</svg>
