<svg width="25" height="25" viewBox="0 0 25 25" fill="none" xmlns="http://www.w3.org/2000/svg">
<path d="M7.16667 7.83333H18.8333V12.5H7.16667V7.83333Z" fill="#1D1C1B"/>
<path d="M18.8333 12.6122C18.8333 15.8339 16.2217 18.4456 13 18.4456C9.77835 18.4456 7.16667 15.8339 7.16667 12.6122C7.16667 9.39057 9.77835 10.2789 13 10.2789C16.2217 10.2789 18.8333 9.39057 18.8333 12.6122Z" fill="#1D1C1B"/>
<path d="M11.8333 13.6667H14.1667V23H11.8333V13.6667Z" fill="#1D1C1B"/>
<path d="M15.3333 3.16667C15.3333 2.52234 15.8557 2 16.5 2C17.1443 2 17.6667 2.52233 17.6667 3.16667V6.66667H15.3333V3.16667Z" fill="#1D1C1B"/>
<path d="M8.33333 3.16667C8.33333 2.52234 8.85566 2 9.49999 2C10.1443 2 10.6667 2.52233 10.6667 3.16667V6.66667H8.33333V3.16667Z" fill="#1D1C1B"/>
<path d="M6 9C6 8.35567 6.52234 7.83333 7.16667 7.83333H18.8333C19.4777 7.83333 20 8.35567 20 9C20 9.64433 19.4777 10.1667 18.8333 10.1667H7.16667C6.52233 10.1667 6 9.64433 6 9Z" fill="#1D1C1B"/>
</svg>
