<svg width="25" height="26" viewBox="0 0 25 26" fill="none" xmlns="http://www.w3.org/2000/svg">
<path d="M9.57929 19.7598C9.57929 20.8643 8.68386 21.7598 7.57929 21.7598H6.57929C5.47472 21.7598 4.57929 20.8643 4.57929 19.7598L4.57928 6.24023C4.57928 5.13566 5.47472 4.24023 6.57928 4.24023L7.57928 4.24023C8.68385 4.24023 9.57928 5.13566 9.57928 6.24023L9.57929 19.7598Z" fill="#1D1C1B"/>
<path d="M9.09368 14.5753C8.06981 13.7746 8.06981 12.2252 9.09368 11.4245L17.1886 5.09358C18.5015 4.06677 20.4207 5.00222 20.4207 6.669V19.3308C20.4207 20.9975 18.5015 21.933 17.1886 20.9062L9.09368 14.5753Z" fill="#1D1C1B"/>
</svg>
