<svg width="100" height="100" viewBox="0 0 100 100" fill="none" xmlns="http://www.w3.org/2000/svg">
<path d="M100 50C100 77.6142 77.6142 100 50 100C22.3858 100 0 77.6142 0 50C0 22.3858 22.3858 0 50 0C77.6142 0 100 22.3858 100 50Z" fill="#F8F8F8"/>
<path opacity="0.35" d="M81.8974 25.8638C83.2186 24.8641 83.4869 22.9746 82.3975 21.7263C78.6078 17.3839 73.9765 13.8395 68.7729 11.3144C62.6679 8.35182 55.9485 6.87619 49.1639 7.00813C42.3793 7.14007 35.7223 8.87585 29.7371 12.0735C24.6356 14.7991 20.1457 18.5208 16.5277 23.0073C15.4876 24.2971 15.8292 26.1746 17.1883 27.1223L18.8126 28.2548C20.1717 29.2024 22.0321 28.8592 23.0925 27.5862C25.9762 24.1244 29.5072 21.2441 33.4976 19.1121C38.372 16.5079 43.7936 15.0942 49.3191 14.9868C54.8445 14.8793 60.3169 16.0811 65.2889 18.4938C69.3592 20.469 72.9996 23.2099 76.0156 26.5569C77.1247 27.7878 78.9971 28.0584 80.3184 27.0586L81.8974 25.8638Z" fill="#1D1C1B"/>
<path fill-rule="evenodd" clip-rule="evenodd" d="M66 71.7508C72.6716 66.8348 77 58.9229 77 50C77 35.0883 64.9117 23 50 23C35.0883 23 23 35.0883 23 50C23 58.9229 27.3284 66.8348 34 71.7508V86.9019C34 89.3732 35.5104 91.6191 37.8514 92.4112C46.7533 95.4233 53.0769 95.5725 62.2085 92.4259C64.521 91.629 66 89.3987 66 86.9528V71.7508Z" fill="#D9D9D9"/>
<path opacity="0.35" d="M70 50C70 61.0457 61.0457 70 50 70C38.9543 70 30 61.0457 30 50C30 38.9543 38.9543 30 50 30C61.0457 30 70 38.9543 70 50Z" fill="#1D1C1B"/>
</svg>
