<svg width="25" height="26" viewBox="0 0 25 26" fill="none" xmlns="http://www.w3.org/2000/svg">
<path fill-rule="evenodd" clip-rule="evenodd" d="M9.92857 2C9.92857 1.44772 10.3763 1 10.9286 1H14.0714C14.6237 1 15.0714 1.44772 15.0714 2V4.82097C16.2845 5.20198 17.3814 5.84542 18.2955 6.68474L20.7406 5.27308C21.2189 4.99694 21.8304 5.16082 22.1066 5.63911L23.678 8.3609C23.9542 8.83919 23.7903 9.45078 23.312 9.72693L20.8685 11.1377C21.0014 11.7372 21.0714 12.3604 21.0714 13C21.0714 13.6396 21.0014 14.2628 20.8685 14.8624L23.312 16.2731C23.7903 16.5492 23.9542 17.1608 23.678 17.6391L22.1066 20.3609C21.8304 20.8392 21.2189 21.0031 20.7406 20.7269L18.2955 19.3153C17.3814 20.1546 16.2845 20.798 15.0714 21.179V24C15.0714 24.5523 14.6237 25 14.0714 25H10.9286C10.3763 25 9.92857 24.5523 9.92857 24V21.179C8.71549 20.798 7.61863 20.1546 6.70451 19.3153L4.25943 20.7269C3.78114 21.0031 3.16955 20.8392 2.89341 20.3609L1.32198 17.6391C1.04583 17.1608 1.20971 16.5492 1.688 16.2731L4.13146 14.8624C3.99862 14.2628 3.92857 13.6396 3.92857 13C3.92857 12.3604 3.99862 11.7372 4.13146 11.1377L1.688 9.72693C1.20971 9.45079 1.04583 8.8392 1.32198 8.3609L2.89341 5.63911C3.16955 5.16082 3.78114 4.99694 4.25943 5.27308L6.7045 6.68475C7.61862 5.84542 8.71549 5.20198 9.92857 4.82097V2ZM12.5 17C10.2909 17 8.5 15.2091 8.5 13C8.5 10.7909 10.2909 9 12.5 9C14.7091 9 16.5 10.7909 16.5 13C16.5 15.2091 14.7091 17 12.5 17Z" fill="#1D1C1B"/>
</svg>
