<svg width="25" height="18" viewBox="0 0 25 18" fill="none" xmlns="http://www.w3.org/2000/svg">
<path d="M5.23246 13.1124C5.01967 12.9442 4.75674 12.8528 4.48594 12.8528H1.20884C0.542263 12.8528 0.00189209 12.3101 0.00189209 11.6406V6.40252C0.00189209 5.73308 0.542263 5.19039 1.20885 5.19039H4.29039C4.55549 5.19039 4.81321 5.10273 5.02376 4.94096L10.0616 1.07025C10.8557 0.460081 12.0019 1.02876 12.0019 2.03296L12.0019 15.967C12.0019 16.979 10.8402 17.5454 10.0484 16.9195L5.23246 13.1124Z" fill="#1D1C1B"/>
<path fill-rule="evenodd" clip-rule="evenodd" d="M14.1115 5.41353C14.6633 5.03447 15.4179 5.17449 15.797 5.72627C16.4591 6.69015 16.8131 7.83232 16.8121 9.00174C16.8111 10.1712 16.4552 11.3127 15.7914 12.2755C15.4113 12.8266 14.6565 12.9653 14.1054 12.5853C13.5543 12.2053 13.4155 11.4505 13.7955 10.8993C14.1807 10.3407 14.3873 9.67824 14.3879 8.99966C14.3885 8.32107 14.183 7.65829 13.7988 7.09897C13.4197 6.54719 13.5598 5.79259 14.1115 5.41353Z" fill="#1D1C1B"/>
<path fill-rule="evenodd" clip-rule="evenodd" d="M17.4066 3.14711C17.9584 2.76805 18.713 2.90807 19.092 3.45985C20.2125 5.09085 20.8115 7.02355 20.8098 9.00233C20.8081 10.9811 20.2058 12.9128 19.0825 14.5419C18.7025 15.093 17.9477 15.2317 17.3965 14.8517C16.8454 14.4717 16.7067 13.7169 17.0867 13.1657C17.9314 11.9407 18.3843 10.4882 18.3855 9.00025C18.3868 7.51229 17.9364 6.05899 17.0939 4.83255C16.7148 4.28077 16.8548 3.52617 17.4066 3.14711Z" fill="#1D1C1B"/>
<path fill-rule="evenodd" clip-rule="evenodd" d="M20.8589 0.772571C21.4107 0.39351 22.1652 0.533527 22.5443 1.08531C24.1449 3.41526 25.0006 6.17619 24.9982 9.00297C24.9958 11.8298 24.1353 14.5892 22.5307 16.9164C22.1507 17.4675 21.3959 17.6063 20.8447 17.2262C20.2936 16.8462 20.1549 16.0914 20.5349 15.5403C21.8609 13.6172 22.5719 11.3368 22.5739 9.00089C22.5759 6.66494 21.8688 4.3834 20.5461 2.45801C20.1671 1.90623 20.3071 1.15163 20.8589 0.772571Z" fill="#1D1C1B"/>
</svg>
