<svg width="25" height="25" viewBox="0 0 25 25" fill="none" xmlns="http://www.w3.org/2000/svg">
<path fill-rule="evenodd" clip-rule="evenodd" d="M8.84101 7.27908C8.84101 5.22828 10.4577 3.52628 12.5 3.52628C14.5423 3.52628 16.159 5.22828 16.159 7.27908V14.2003C16.9062 15.0782 17.3583 16.2274 17.3583 17.4832C17.3583 20.2176 15.2046 22.4737 12.5 22.4737C9.79533 22.4737 7.64166 20.2176 7.64166 17.4832C7.64166 16.2274 8.09375 15.0782 8.84101 14.2003V7.27908ZM12.5 4.98377C11.3056 4.98377 10.2985 5.98959 10.2985 7.27908V14.7745L10.0948 14.9861C9.48179 15.6229 9.09916 16.5031 9.09916 17.4832C9.09916 19.4562 10.6432 21.0162 12.5 21.0162C14.3567 21.0162 15.9008 19.4562 15.9008 17.4832C15.9008 16.5031 15.5182 15.6229 14.9052 14.9861L14.7015 14.7745V7.27908C14.7015 5.98959 13.6943 4.98377 12.5 4.98377Z" fill="#1D1C1B"/>
<path d="M12.4658 7.04101C12.0612 7.04101 11.7333 7.36899 11.7333 7.77357V15.7445C11.0939 16.0453 10.6495 16.7107 10.6495 17.4832C10.6495 18.5379 11.478 19.3929 12.5 19.3929C13.522 19.3929 14.3505 18.5379 14.3505 17.4832C14.3505 16.6834 13.8742 15.9985 13.1984 15.7141V7.77357C13.1984 7.36899 12.8704 7.04101 12.4658 7.04101Z" fill="#1D1C1B"/>
</svg>
