<svg width="25" height="26" viewBox="0 0 25 26" fill="none" xmlns="http://www.w3.org/2000/svg">
<path d="M4 4.25C3.44772 4.25 3 4.69772 3 5.25V7C3 7.55228 3.44772 8 4 8H22C22.5523 8 23 7.55228 23 7V5.25C23 4.69772 22.5523 4.25 22 4.25H18.4806C18.1768 4.25 17.8895 4.11191 17.6998 3.87469L17.3002 3.3753C17.1105 3.13809 16.8232 3 16.5194 3H9.48062C9.17684 3 8.88953 3.13809 8.69976 3.37531L8.30024 3.8747C8.11047 4.11191 7.82316 4.25 7.51938 4.25H4Z" fill="black"/>
<path fill-rule="evenodd" clip-rule="evenodd" d="M5 9.76923C5 9.21694 5.44772 8.76923 6 8.76923H20C20.5523 8.76923 21 9.21694 21 9.76923V20.1923C21 21.8492 19.6569 23.1923 18 23.1923H8C6.34315 23.1923 5 21.8492 5 20.1923V9.76923ZM9 12C9.55229 12 10 12.4477 10 13L10 19C10 19.5523 9.55228 20 9 20C8.44772 20 8 19.5523 8 19L8 13C8 12.4477 8.44772 12 9 12ZM14 13C14 12.4477 13.5523 12 13 12C12.4477 12 12 12.4477 12 13V19C12 19.5523 12.4477 20 13 20C13.5523 20 14 19.5523 14 19V13ZM17 12C17.5523 12 18 12.4477 18 13V19C18 19.5523 17.5523 20 17 20C16.4477 20 16 19.5523 16 19V13C16 12.4477 16.4477 12 17 12Z" fill="black"/>
</svg>
