<svg width="25" height="26" viewBox="0 0 25 26" fill="none" xmlns="http://www.w3.org/2000/svg">
<path d="M12.5 14.375C15.916 14.375 18.6875 11.6035 18.6875 8.1875C18.6875 4.77148 15.916 2 12.5 2C9.08398 2 6.3125 4.77148 6.3125 8.1875C6.3125 11.6035 9.08398 14.375 12.5 14.375ZM18 15.75H15.6324C14.8454 15.7126 13.6172 15.75 12.5 15.75C11.3828 15.75 10.4454 15.7126 9.36758 15.75H7C3.96211 15.75 1.5 18.2121 1.5 21.25V21.9375C1.5 23.0762 2.42383 24 3.5625 24H21.4375C22.5762 24 23.5 23.0762 23.5 21.9375V21.25C23.5 18.2121 21.0379 15.75 18 15.75Z" fill="black"/>
</svg>
