<svg width="28" height="29" viewBox="0 0 28 29" fill="none" xmlns="http://www.w3.org/2000/svg">
<path fill-rule="evenodd" clip-rule="evenodd" d="M18.3122 5.57291C17.9062 5.65984 17.4888 5.48694 17.2632 5.13843L14.8395 1.39359C14.4454 0.784718 13.5546 0.784717 13.1605 1.39359L10.7367 5.13843C10.5112 5.48694 10.0937 5.65984 9.68782 5.57291L5.32597 4.63875C4.61679 4.48686 3.98685 5.1168 4.13873 5.82599L5.07289 10.1878C5.15983 10.5938 4.98692 11.0112 4.63841 11.2368L0.893573 13.6605C0.284703 14.0546 0.284702 14.9454 0.893573 15.3395L4.63841 17.7632C4.98692 17.9888 5.15983 18.4062 5.07289 18.8122L4.13873 23.174C3.98685 23.8832 4.61679 24.5131 5.32597 24.3613L9.68782 23.4271C10.0937 23.3402 10.5112 23.5131 10.7367 23.8616L13.1605 27.6064C13.5546 28.2153 14.4454 28.2153 14.8395 27.6064L17.2632 23.8616C17.4888 23.5131 17.9062 23.3402 18.3122 23.4271L22.674 24.3613C23.3832 24.5131 24.0131 23.8832 23.8612 23.174L22.9271 18.8122C22.8401 18.4062 23.0131 17.9888 23.3616 17.7632L27.1064 15.3395C27.7153 14.9454 27.7153 14.0546 27.1064 13.6605L23.3616 11.2368C23.0131 11.0112 22.8401 10.5938 22.9271 10.1878L23.8612 5.82599C24.0131 5.1168 23.3832 4.48686 22.674 4.63875L18.3122 5.57291ZM14 21.7018C17.9774 21.7018 21.2017 18.4774 21.2017 14.5C21.2017 10.5226 17.9774 7.29825 14 7.29825C10.0226 7.29825 6.79823 10.5226 6.79823 14.5C6.79823 18.4774 10.0226 21.7018 14 21.7018Z" fill="#1D1C1B"/>
<path d="M19 14.5C19 17.2614 16.7614 19.5 14 19.5C11.2386 19.5 8.99999 17.2614 8.99999 14.5C8.99999 11.7386 11.2386 9.5 14 9.5C16.7614 9.5 19 11.7386 19 14.5Z" fill="#1D1C1B"/>
</svg>
